<svg width="132" height="108" viewBox="0 0 132 108" fill="none" xmlns="http://www.w3.org/2000/svg">
<path d="M28.6707 106H47.1351V100.634H53.9211V34.6677H51.0804V29.1442H28.6707V34.6677H17.7815V39.7178H13.3627V50.2914H7.20789V56.4461H2V78.5402H7.20789V89.2716H13.3627V94.7951H23.7785V100.634H28.6707V106Z" fill="#EE7F7F" stroke="black" stroke-width="3"/>
<path d="M80.592 106H62.1276V100.634H55.3416V34.6677H58.1823V29.1441H80.592V34.6677H91.4812V39.7177H95.9V50.2913H102.055V56.4461H107.263V78.5402H102.055V89.2716H95.9V94.7951H85.4842V100.634H80.592V106Z" fill="#EE7F7F" stroke="black" stroke-width="3"/>
<rect x="3.57812" y="71.7542" width="5.36571" height="5.36571" fill="#EC4B6D"/>
<rect x="95.1108" y="71.7542" width="11.047" height="5.36571" fill="#EC4B6D"/>
<rect x="106.158" y="58.1821" width="18.3065" height="5.3657" transform="rotate(90 106.158 58.1821)" fill="#EC4B6D"/>
<rect x="80.9077" y="64.8103" width="11.9939" height="5.3657" transform="rotate(90 80.9077 64.8103)" fill="#EC4B6D"/>
<rect x="100.477" y="76.173" width="11.6783" height="5.36571" transform="rotate(90 100.477 76.173)" fill="#EC4B6D"/>
<rect x="94.4795" y="84.3793" width="8.83763" height="5.3657" transform="rotate(90 94.4795 84.3793)" fill="#EC4B6D"/>
<rect x="90.3765" y="36.088" width="8.83763" height="5.3657" transform="rotate(90 90.3765 36.088)" fill="#EC4B6D"/>
<rect x="79.0137" y="30.7223" width="5.36571" height="5.36571" transform="rotate(90 79.0137 30.7223)" fill="#EC4B6D"/>
<rect x="63.8638" y="92.5857" width="6.62823" height="6.94385" transform="rotate(90 63.8638 92.5857)" fill="#EC4B6D"/>
<rect x="97.9512" y="84.3793" width="3.47193" height="8.83763" transform="rotate(90 97.9512 84.3793)" fill="#EC4B6D"/>
<rect x="100.477" y="51.8695" width="6.31259" height="11.3627" transform="rotate(90 100.477 51.8695)" fill="#EC4B6D"/>
<rect x="94.4795" y="52.8164" width="5.36571" height="11.3627" transform="rotate(-180 94.4795 52.8164)" fill="#EC4B6D"/>
<rect x="84.0635" y="90.3763" width="8.83763" height="5.3657" transform="rotate(90 84.0635 90.3763)" fill="#EC4B6D"/>
<rect x="91.3228" y="89.7451" width="3.47193" height="12.6252" transform="rotate(90 91.3228 89.7451)" fill="#EC4B6D"/>
<rect x="79.0137" y="95.742" width="8.83763" height="5.3657" transform="rotate(90 79.0137 95.742)" fill="#EC4B6D"/>
<rect x="83.4326" y="95.1108" width="3.47193" height="9.78452" transform="rotate(90 83.4326 95.1108)" fill="#EC4B6D"/>
<rect x="73.9634" y="101.108" width="3.47193" height="10.4158" transform="rotate(90 73.9634 101.108)" fill="#EC4B6D"/>
<rect x="21.5693" y="64.179" width="5.36571" height="8.83763" fill="#EC4B6D"/>
<rect x="31.9849" y="52.1851" width="5.36571" height="5.36571" fill="#EC4B6D"/>
<rect x="37.3506" y="46.8194" width="5.36571" height="5.36571" fill="#EC4B6D"/>
<rect x="67.6509" y="52.1851" width="5.36571" height="5.36571" fill="#EC4B6D"/>
<rect x="80.5918" y="59.4446" width="5.36571" height="5.36571" fill="#EC4B6D"/>
<rect x="73.0166" y="46.8194" width="8.20637" height="5.36571" fill="#EC4B6D"/>
<rect x="8.94385" y="57.5508" width="5.36571" height="5.36571" fill="#FF9EB3"/>
<rect x="19.0444" y="41.4537" width="5.36571" height="8.20637" fill="#FF9EB3"/>
<rect x="63.5479" y="38.613" width="5.36571" height="6.31259" fill="#FF9EB3"/>
<rect x="30.0913" y="41.4537" width="5.36571" height="8.20637" transform="rotate(-90 30.0913 41.4537)" fill="#FF9EB3"/>
<rect x="30.0913" y="71.7542" width="5.36571" height="8.83763" fill="#EC4B6D"/>
<rect x="43.6631" y="70.176" width="5.36571" height="8.83763" transform="rotate(90 43.6631 70.176)" fill="#EC4B6D"/>
<rect x="51.5537" y="64.8103" width="5.36571" height="7.89074" transform="rotate(90 51.5537 64.8103)" fill="#EC4B6D"/>
<rect x="14.9409" y="87.8513" width="5.36571" height="5.36571" fill="#EC4B6D"/>
<rect x="25.0405" y="93.217" width="8.83763" height="5.99696" fill="#EC4B6D"/>
<rect x="43.6631" y="93.217" width="8.83763" height="5.99696" fill="#EC4B6D"/>
<rect x="49.6602" y="36.088" width="2.84067" height="63.1259" fill="#EC4B6D"/>
<rect x="47.4507" y="64.8103" width="5.05008" height="34.4036" fill="#EC4B6D"/>
<rect x="44.6099" y="30.7223" width="5.05008" height="7.89074" fill="#EC4B6D"/>
<rect x="30.0913" y="99.2139" width="15.4659" height="5.36571" fill="#EC4B6D"/>
<rect x="8.62793" y="84.3793" width="5.68133" height="3.47193" fill="#EC4B6D"/>
<rect x="26.9346" y="57.5508" width="5.05008" height="8.83763" fill="black"/>
<rect x="21.8848" y="53.7633" width="5.05008" height="5.05008" fill="black"/>
<rect x="75.5415" y="78.0668" width="5.05008" height="13.2564" transform="rotate(-180 75.5415 78.0668)" fill="black"/>
<rect x="83.4326" y="81.8543" width="7.89074" height="5.05008" transform="rotate(-180 83.4326 81.8543)" fill="black"/>
<path d="M105.842 30.8801H95.1108V13.5205H100.477V8.15478H105.842V2H117.836V13.5205H122.886V19.9909H129.672V30.8801H122.886V36.4036H117.836V41.7693H105.842V30.8801Z" fill="#EAB42F" stroke="black" stroke-width="3"/>
<rect x="120.993" y="21.569" width="7.25948" height="7.89074" fill="#E0923E"/>
<rect x="116.258" y="14.9408" width="5.05008" height="7.89074" fill="#E0923E"/>
<rect x="96.689" y="14.9408" width="5.36571" height="7.89074" fill="#FFCE53"/>
<rect x="102.055" y="9.57511" width="5.36571" height="7.89074" fill="#FFCE53"/>
<rect x="116.258" y="29.1442" width="5.05008" height="5.99696" fill="#E0923E"/>
</svg>
