<svg width="33" height="35" viewBox="0 0 33 35" fill="none" xmlns="http://www.w3.org/2000/svg">
<path d="M21.3691 5.6875H24.7363L27.0352 3.40918L27.3867 3.06055L27.7393 3.40918L30.5908 6.23535L30.9492 6.59082L30.5908 6.94629L27.8867 9.625V12.9541H32.7754V22.0283H27.8867V24.5479L30.5908 27.2285L30.9492 27.583L30.5908 27.9385L27.7393 30.7646L27.3867 31.1133L27.0352 30.7646L24.7363 28.4873H21.3691V34.1387H12.2217V28.4873H8.03906L5.74023 30.7646L5.38867 31.1133L5.03613 30.7646L2.59277 28.3428L2.23438 27.9873L2.59277 27.6318L4.88867 25.3555V22.0283H0V12.9541H4.88867V9.625L2.18457 6.94629L1.82617 6.59082L2.18457 6.23535L5.03613 3.40918L5.38867 3.06055L5.74023 3.40918L8.03906 5.6875H12.2217V0.0351562H21.3691V5.6875ZM13.3311 9.72461L13.1846 9.86914L9.11133 13.9062L8.96289 14.0537V20.9297L9.11133 21.0762L13.1846 25.1133L13.3311 25.2578H20.2607L20.4062 25.1133L24.4805 21.0762L24.6289 20.9297V14.0537L24.4805 13.9062L20.4062 9.86914L20.2607 9.72461H13.3311Z" fill="#959595"/>
</svg>
