<svg width="160" height="130" viewBox="0 0 160 130" fill="none" xmlns="http://www.w3.org/2000/svg">
<path d="M92.3026 130H63.8404V122.9H0V14.9341H7.04904V0H44.2893V7.22222H59.7174V14.9341H99.7506V7.22222H115.312V0H152.951V14.9341H160V122.9H96.2926V126.817H92.3026V130Z" fill="#D9D9D9"/>
<path d="M120.335 53.3701H128.174V61.21H135.216V90.1113H128.174V98.748H88.6426V93.9648H72.5029V97.5518H28.4541V85.7266H25V61.21H32.8389V53.3701H40.9443V45H120.335V53.3701ZM48.5166 68.915H40.9434V77.4883H48.5166V85.7266H57.2227V77.4883H65.0625V68.915H57.2227V61.209H48.5166V68.915ZM104.188 61.209V68.915H96.6143V77.4883H104.188V85.7266H113.159V77.4883H120.334V68.915H113.159V61.209H104.188Z" fill="black"/>
<rect x="104.555" y="69.2825" width="8.23771" height="7.97197" fill="black"/>
</svg>
